<svg version="1.1" id="Layer_1" xmlns="http://www.w3.org/2000/svg" xmlns:xlink="http://www.w3.org/1999/xlink" x="0px" y="0px"
	 width="100%" viewBox="0 0 453 635" enable-background="new 0 0 453 635" xml:space="preserve">
<path fill="#222831" opacity="1.000000" stroke="none" 
	d="
M454.000000,234.000000 
	C454.000000,368.333344 454.000000,502.166656 454.000000,636.000000 
	C303.000000,636.000000 152.000000,636.000000 1.000000,636.000000 
	C1.000000,424.333344 1.000000,212.666672 1.000000,1.000000 
	C152.000000,1.000000 303.000000,1.000000 454.000000,1.000000 
	C454.000000,78.500000 454.000000,156.000000 454.000000,234.000000 
M294.185394,388.666748 
	C301.121063,393.785828 308.056702,398.904877 315.384491,404.557953 
	C321.555786,409.119202 327.727081,413.680450 334.290100,418.766968 
	C341.191223,423.851440 348.092346,428.935944 355.381500,434.563873 
	C363.957977,438.464691 365.444672,445.444550 363.769867,453.818848 
	C363.541840,454.958923 363.580444,456.158936 363.294708,457.279968 
	C360.138947,469.659546 356.943451,482.028992 353.281616,494.961304 
	C347.261047,509.592926 338.657013,522.665955 328.470428,535.448975 
	C319.997223,543.380798 311.523987,551.312622 302.435303,559.496033 
	C294.569153,564.189087 286.703003,568.882202 278.106232,573.756042 
	C269.412323,576.923035 260.718384,580.090088 251.254410,583.335571 
	C242.181595,584.834106 233.108765,586.332642 223.202576,587.703186 
	C213.803909,587.456665 204.405228,587.210144 194.288635,586.661743 
	C184.536575,584.402039 174.784515,582.142334 164.464661,579.482300 
	C155.337830,575.292053 146.210999,571.101807 136.606857,566.443726 
	C129.118088,560.934021 121.629311,555.424255 113.737213,549.382446 
	C107.164330,542.251709 100.591446,535.120972 93.736496,527.370117 
	C86.946831,515.148254 80.157158,502.926361 73.239861,489.943970 
	C72.129410,486.280243 70.643173,482.683258 69.978157,478.940369 
	C67.885956,467.164978 65.870781,455.365021 64.322426,443.509705 
	C63.766537,439.253418 62.169460,437.524750 58.036823,437.883728 
	C56.879372,437.984253 55.702305,437.969879 54.541191,437.897156 
	C50.546230,437.646851 48.563274,439.343964 48.967548,443.477692 
	C49.679523,450.757751 49.951309,458.110596 51.160828,465.306366 
	C54.299606,483.979767 59.741592,501.916534 70.014900,518.849731 
	C76.909584,528.313354 83.804268,537.776978 91.047035,547.808167 
	C97.401840,553.861450 103.756645,559.914673 110.537697,566.465637 
	C118.684509,571.983215 126.831322,577.500854 135.512634,583.443054 
	C145.350128,587.559998 155.187622,591.676941 165.733078,596.069031 
	C175.161591,597.992126 184.590103,599.915283 194.834412,602.008789 
	C204.563522,602.277100 214.292648,602.545410 224.906235,602.859741 
	C234.307388,601.405090 243.708557,599.950439 253.931351,598.341431 
	C262.291290,595.583008 270.651245,592.824524 279.726288,589.929077 
	C288.570801,584.998291 297.415314,580.067505 306.795868,574.727417 
	C314.603088,568.364258 322.410309,562.001038 330.814178,555.270508 
	C334.916016,550.708191 339.407562,546.432556 343.025757,541.514404 
	C348.094604,534.624573 352.513245,527.256348 357.790955,519.750671 
	C365.010864,507.576233 370.245758,494.616974 374.170563,480.997589 
	C379.200500,463.543488 380.039185,445.743378 380.021484,427.789001 
	C379.994385,400.306854 380.047852,372.824493 379.924866,345.342865 
	C379.917908,343.791901 379.044373,341.705627 377.861084,340.786957 
	C370.373108,334.973236 362.683929,329.418671 354.695770,323.239471 
	C347.193115,317.652496 339.690491,312.065521 331.788849,305.989655 
	C324.905701,300.877594 318.022552,295.765503 310.756470,290.130005 
	C303.864777,285.032867 296.973114,279.935730 289.692474,274.305542 
	C282.806976,269.200592 275.921478,264.095612 268.640808,258.450867 
	C259.440063,251.595490 250.239319,244.740112 240.651825,237.351227 
	C230.805603,230.016296 220.959381,222.681381 210.742111,214.855057 
	C200.524597,207.211670 190.307083,199.568268 179.668976,191.405396 
	C169.125610,183.514313 158.582245,175.623230 147.628265,167.240692 
	C138.107742,160.145874 128.587234,153.051056 118.636948,145.444885 
	C108.742996,138.029236 98.849037,130.613586 88.592804,122.721550 
	C88.089684,121.661438 87.586563,120.601334 87.599945,119.019379 
	C95.102806,110.087906 102.605667,101.156433 110.658569,91.832405 
	C119.128761,85.298775 127.598953,78.765137 136.744431,71.979088 
	C146.268997,67.416870 155.793579,62.854649 166.071762,58.158905 
	C174.045242,56.140797 182.018707,54.122684 190.895615,52.103458 
	C200.610382,51.536480 210.325150,50.969498 220.926254,50.615559 
	C229.949768,51.758675 238.973297,52.901794 248.629166,54.402767 
	C257.034210,57.132793 265.439270,59.862823 274.378113,62.957726 
	C280.892395,66.320259 287.406647,69.682785 294.390167,73.530045 
	C301.593597,79.019638 308.797058,84.509232 316.320007,90.583260 
	C323.817871,99.083900 331.315704,107.584549 339.043030,116.750893 
	C347.769257,129.854004 353.922607,144.173233 359.003052,159.793182 
	C361.292358,173.326843 363.581635,186.860504 365.895172,200.537399 
	C370.254272,200.537399 374.839508,200.537399 379.874237,200.537399 
	C379.874237,198.614838 380.084106,196.966858 379.840729,195.388779 
	C378.029724,183.645325 376.919952,171.716492 374.028809,160.239120 
	C371.261047,149.251541 366.613251,138.737564 362.653625,127.322014 
	C355.894531,116.809273 349.135468,106.296532 342.077942,95.170441 
	C333.789917,87.226952 325.501892,79.283463 316.831909,70.853638 
	C310.344635,66.497246 303.857361,62.140854 296.911560,57.265358 
	C289.313202,53.693195 281.714874,50.121033 273.548676,46.187172 
	C265.067902,43.649075 256.587128,41.110981 247.419891,38.254360 
	C238.293213,37.299984 229.166534,36.345604 219.111633,35.216274 
	C209.415298,35.851429 199.718979,36.486588 189.181427,37.078037 
	C180.410278,39.225101 171.639130,41.372166 162.091995,43.674973 
	C152.944214,47.692482 143.796448,51.709991 133.994537,55.948105 
	C125.042648,62.308853 116.090767,68.669601 106.550919,75.370995 
	C99.328972,82.873734 92.107018,90.376472 84.386475,98.321861 
	C78.219620,108.173531 72.052773,118.025192 65.465195,128.424026 
	C53.548145,151.299988 49.206860,175.954910 48.549366,201.422852 
	C48.506771,203.072876 49.790955,205.283936 51.150669,206.352844 
	C57.272339,211.165237 63.644077,215.659515 70.363220,220.737915 
	C78.763344,226.945450 87.163475,233.152985 96.006744,239.852264 
	C103.512009,245.402298 111.017273,250.952332 118.934593,256.983673 
	C125.621536,261.995117 132.308487,267.006561 139.429413,272.519684 
	C146.917618,278.095093 154.405823,283.670502 162.334244,289.729279 
	C171.482880,296.534729 180.631516,303.340179 190.219711,310.655548 
	C199.956131,317.899414 209.692566,325.143280 219.893555,332.872284 
	C229.895569,340.327850 239.897583,347.783386 250.314255,355.749207 
	C258.132050,361.540588 265.949890,367.331970 274.189545,373.654846 
	C280.718231,378.480652 287.246948,383.306427 294.185394,388.666748 
z"/>
<path fill="#90CA25" opacity="1.000000" stroke="none" 
	d="
M353.758728,494.401184 
	C356.943451,482.028992 360.138947,469.659546 363.294708,457.279968 
	C363.580444,456.158936 363.541840,454.958923 363.769867,453.818848 
	C365.444672,445.444550 363.957977,438.464691 355.188873,433.824951 
	C355.344360,427.682465 355.692474,422.278870 356.384460,416.953888 
	C359.184052,418.522339 361.639709,420.012146 364.834625,421.950470 
	C364.834625,419.288483 364.834625,417.513611 364.834625,415.738708 
	C364.834686,398.821045 364.175964,381.868134 365.078064,364.998688 
	C365.632904,354.622833 363.742584,346.614563 354.125854,341.295593 
	C354.503052,335.199829 354.782104,329.489197 355.061127,323.778595 
	C362.683929,329.418671 370.373108,334.973236 377.861084,340.786957 
	C379.044373,341.705627 379.917908,343.791901 379.924866,345.342865 
	C380.047852,372.824493 379.994385,400.306854 380.021484,427.789001 
	C380.039185,445.743378 379.200500,463.543488 374.170563,480.997589 
	C370.245758,494.616974 365.010864,507.576233 357.217529,519.656799 
	C356.095795,517.229004 355.276428,514.920715 355.052185,512.556091 
	C354.479553,506.517853 354.172211,500.454498 353.758728,494.401184 
z"/>
<path fill="#066A37" opacity="1.000000" stroke="none" 
	d="
M69.925667,220.268463 
	C63.644077,215.659515 57.272339,211.165237 51.150669,206.352844 
	C49.790955,205.283936 48.506771,203.072876 48.549366,201.422852 
	C49.206860,175.954910 53.548145,151.299988 65.835968,128.544464 
	C66.474953,135.862152 66.537613,143.075607 67.102760,150.249466 
	C67.364365,153.570251 68.605515,156.813843 69.340698,160.505981 
	C68.005089,167.234238 66.151817,173.499161 65.603859,179.876221 
	C64.914459,187.899368 60.631577,197.165359 70.985168,203.068634 
	C70.567123,209.088181 70.246399,214.678329 69.925667,220.268463 
z"/>
<path fill="#066A37" opacity="1.000000" stroke="none" 
	d="
M69.734299,518.218140 
	C59.741592,501.916534 54.299606,483.979767 51.160828,465.306366 
	C49.951309,458.110596 49.679523,450.757751 48.967548,443.477692 
	C48.563274,439.343964 50.546230,437.646851 54.541191,437.897156 
	C55.702305,437.969879 56.879372,437.984253 58.036823,437.883728 
	C62.169460,437.524750 63.766537,439.253418 64.322426,443.509705 
	C65.870781,455.365021 67.885956,467.164978 69.978157,478.940369 
	C70.643173,482.683258 72.129410,486.280243 73.024323,490.637939 
	C72.206390,494.025238 71.321472,496.691284 71.058662,499.417328 
	C70.455971,505.668732 70.156738,511.949371 69.734299,518.218140 
z"/>
<path fill="#90CA25" opacity="1.000000" stroke="none" 
	d="
M362.791748,128.015427 
	C366.613251,138.737564 371.261047,149.251541 374.028809,160.239120 
	C376.919952,171.716492 378.029724,183.645325 379.840729,195.388779 
	C380.084106,196.966858 379.874237,198.614838 379.874237,200.537399 
	C374.839508,200.537399 370.254272,200.537399 365.895172,200.537399 
	C363.581635,186.860504 361.292358,173.326843 359.217194,159.078629 
	C359.936523,156.484314 360.814484,154.617081 360.878082,152.722504 
	C361.082153,146.642151 360.833466,140.545425 361.085419,134.468521 
	C361.175415,132.297638 362.195953,130.165344 362.791748,128.015427 
z"/>
<path fill="#0F7136" opacity="1.000000" stroke="none" 
	d="
M69.402565,160.092438 
	C68.605515,156.813843 67.364365,153.570251 67.102760,150.249466 
	C66.537613,143.075607 66.474953,135.862152 66.046326,128.270874 
	C72.052773,118.025192 78.219620,108.173531 84.794495,98.485031 
	C85.829483,105.612549 86.456459,112.576881 87.083443,119.541222 
	C87.586563,120.601334 88.089684,121.661438 88.779968,123.373390 
	C88.624107,129.758713 88.281075,135.492203 87.637123,141.059174 
	C84.792053,139.207245 82.247902,137.521805 78.775131,135.221176 
	C75.436867,144.079681 72.419716,152.086060 69.402565,160.092438 
z"/>
<path fill="#84C226" opacity="1.000000" stroke="none" 
	d="
M353.520172,494.681244 
	C354.172211,500.454498 354.479553,506.517853 355.052185,512.556091 
	C355.276428,514.920715 356.095795,517.229004 356.927063,519.827820 
	C352.513245,527.256348 348.094604,534.624573 343.025757,541.514404 
	C339.407562,546.432556 334.916016,550.708191 330.487854,554.944946 
	C329.790192,548.123779 329.418793,541.628113 329.047424,535.132446 
	C338.657013,522.665955 347.261047,509.592926 353.520172,494.681244 
z"/>
<path fill="#89C526" opacity="1.000000" stroke="none" 
	d="
M362.722687,127.668716 
	C362.195953,130.165344 361.175415,132.297638 361.085419,134.468521 
	C360.833466,140.545425 361.082153,146.642151 360.878082,152.722504 
	C360.814484,154.617081 359.936523,156.484314 359.221191,158.679962 
	C353.922607,144.173233 347.769257,129.854004 339.145752,116.132294 
	C339.666229,113.450890 340.169464,111.401031 340.484039,109.322632 
	C341.165985,104.817436 341.751465,100.297630 342.376373,95.783798 
	C349.135468,106.296532 355.894531,116.809273 362.722687,127.668716 
z"/>
<path fill="#0F7136" opacity="1.000000" stroke="none" 
	d="
M69.874603,518.533936 
	C70.156738,511.949371 70.455971,505.668732 71.058662,499.417328 
	C71.321472,496.691284 72.206390,494.025238 73.088135,491.018219 
	C80.157158,502.926361 86.946831,515.148254 93.612358,527.946899 
	C92.992455,531.042480 92.390366,533.546021 92.026108,536.083679 
	C91.494125,539.789795 91.132935,543.520447 90.698944,547.240601 
	C83.804268,537.776978 76.909584,528.313354 69.874603,518.533936 
z"/>
<path fill="#348B31" opacity="1.000000" stroke="none" 
	d="
M148.038879,167.732147 
	C158.582245,175.623230 169.125610,183.514313 179.723480,192.053314 
	C179.521896,194.474442 179.315155,196.256500 178.999237,198.018982 
	C178.376907,201.491043 177.693970,204.952271 176.768768,208.274704 
	C166.679977,200.677719 156.858521,193.223984 147.065125,185.387665 
	C147.408401,179.247421 147.723633,173.489792 148.038879,167.732147 
z"/>
<path fill="#42942F" opacity="1.000000" stroke="none" 
	d="
M177.036102,208.417969 
	C177.693970,204.952271 178.376907,201.491043 178.999237,198.018982 
	C179.315155,196.256500 179.521896,194.474442 179.933777,192.313049 
	C190.307083,199.568268 200.524597,207.211670 210.880341,215.573303 
	C210.667938,221.893524 210.317322,227.495483 209.648254,232.972107 
	C198.565231,224.703827 187.800674,216.560898 177.036102,208.417969 
z"/>
<path fill="#268133" opacity="1.000000" stroke="none" 
	d="
M147.833572,167.486420 
	C147.723633,173.489792 147.408401,179.247421 146.771332,185.244537 
	C136.264282,177.749756 126.079071,170.015488 116.025734,161.869507 
	C116.436905,159.035080 116.574867,156.585266 117.032547,154.196716 
	C117.564255,151.421844 118.376328,148.700684 119.066711,145.956223 
	C128.587234,153.051056 138.107742,160.145874 147.833572,167.486420 
z"/>
<path fill="#509E2D" opacity="1.000000" stroke="none" 
	d="
M209.966705,233.097458 
	C210.317322,227.495483 210.667938,221.893524 211.065857,215.819000 
	C220.959381,222.681381 230.805603,230.016296 240.841278,238.091949 
	C240.702271,244.475098 240.373810,250.117508 239.742264,255.632889 
	C229.615036,248.036377 219.790878,240.566910 209.966705,233.097458 
z"/>
<path fill="#47982E" opacity="1.000000" stroke="none" 
	d="
M219.428986,332.387146 
	C209.692566,325.143280 199.956131,317.899414 190.171265,310.012390 
	C190.414749,306.909668 190.583511,304.427429 191.031631,301.996674 
	C191.525986,299.315155 192.276657,296.680878 193.228973,294.164001 
	C203.040421,301.474121 212.538605,308.646210 221.941757,316.235718 
	C221.040817,321.897797 220.234894,327.142487 219.428986,332.387146 
z"/>
<path fill="#55A12D" opacity="1.000000" stroke="none" 
	d="
M219.661255,332.629700 
	C220.234894,327.142487 221.040817,321.897797 222.256363,316.379669 
	C232.753204,323.744873 242.840424,331.383545 252.671692,339.288910 
	C251.577042,344.783386 250.738327,350.011139 249.899597,355.238922 
	C239.897583,347.783386 229.895569,340.327850 219.661255,332.629700 
z"/>
<path fill="#197835" opacity="1.000000" stroke="none" 
	d="
M118.851830,145.700562 
	C118.376328,148.700684 117.564255,151.421844 117.032547,154.196716 
	C116.574867,156.585266 116.436905,159.035080 115.717270,161.710388 
	C106.163979,155.050537 97.051010,148.138107 87.938042,141.225677 
	C88.281075,135.492203 88.624107,129.758713 88.961105,123.611588 
	C98.849037,130.613586 108.742996,138.029236 118.851830,145.700562 
z"/>
<path fill="#3A8F30" opacity="1.000000" stroke="none" 
	d="
M192.915680,294.026001 
	C192.276657,296.680878 191.525986,299.315155 191.031631,301.996674 
	C190.583511,304.427429 190.414749,306.909668 189.951477,309.757416 
	C180.631516,303.340179 171.482880,296.534729 162.130371,289.002441 
	C162.309601,282.703217 162.692703,277.130798 163.352295,271.787018 
	C173.391083,279.352417 183.153397,286.689209 192.915680,294.026001 
z"/>
<path fill="#7DBD27" opacity="1.000000" stroke="none" 
	d="
M342.227142,95.477119 
	C341.751465,100.297630 341.165985,104.817436 340.484039,109.322632 
	C340.169464,111.401031 339.666229,113.450890 339.031036,115.799438 
	C331.315704,107.584549 323.817871,99.083900 316.253296,89.884018 
	C316.529022,83.236504 316.871460,77.288239 317.213867,71.339966 
	C325.501892,79.283463 333.789917,87.226952 342.227142,95.477119 
z"/>
<path fill="#7DBD27" opacity="1.000000" stroke="none" 
	d="
M328.758911,535.290710 
	C329.418793,541.628113 329.790192,548.123779 330.189545,555.128662 
	C322.410309,562.001038 314.603088,568.364258 306.243408,574.664429 
	C305.136932,572.925476 304.334778,571.286133 304.081329,569.565857 
	C303.577942,566.148987 303.376801,562.687439 303.050781,559.244385 
	C311.523987,551.312622 319.997223,543.380798 328.758911,535.290710 
z"/>
<path fill="#227E33" opacity="1.000000" stroke="none" 
	d="
M136.069153,72.231506 
	C127.598953,78.765137 119.128761,85.298775 110.248367,91.616898 
	C109.560120,88.604324 109.419205,85.784744 108.964874,83.016602 
	C108.523445,80.327072 107.760590,77.690292 107.138878,75.030350 
	C116.090767,68.669601 125.042648,62.308853 134.511978,56.236412 
	C135.376007,61.760311 135.722580,66.995911 136.069153,72.231506 
z"/>
<path fill="#197835" opacity="1.000000" stroke="none" 
	d="
M106.844894,75.200668 
	C107.760590,77.690292 108.523445,80.327072 108.964874,83.016602 
	C109.419205,85.784744 109.560120,88.604324 109.973343,91.813171 
	C102.605667,101.156433 95.102806,110.087906 87.341690,119.280304 
	C86.456459,112.576881 85.829483,105.612549 85.043785,98.263710 
	C92.107018,90.376472 99.328972,82.873734 106.844894,75.200668 
z"/>
<path fill="#0F7136" opacity="1.000000" stroke="none" 
	d="
M70.144447,220.503189 
	C70.246399,214.678329 70.567123,209.088181 71.292389,203.243866 
	C80.469925,209.602936 89.242920,216.216171 97.891747,223.235199 
	C97.032921,228.880844 96.298256,234.120682 95.563599,239.360519 
	C87.163475,233.152985 78.763344,226.945450 70.144447,220.503189 
z"/>
<path fill="#61AA2B" opacity="1.000000" stroke="none" 
	d="
M240.045334,255.759933 
	C240.373810,250.117508 240.702271,244.475098 241.034668,238.358704 
	C250.239319,244.740112 259.440063,251.595490 268.574219,258.986511 
	C268.016113,261.199310 267.322235,262.847290 267.075287,264.559723 
	C266.565308,268.095734 266.293579,271.666077 265.603149,275.090759 
	C256.870056,268.559479 248.457703,262.159698 240.045334,255.759933 
z"/>
<path fill="#2E8632" opacity="1.000000" stroke="none" 
	d="
M165.025116,595.793884 
	C155.187622,591.676941 145.350128,587.559998 135.391815,582.845459 
	C135.875381,577.135803 136.479782,572.023682 137.084167,566.911560 
	C146.210999,571.101807 155.337830,575.292053 164.742508,580.157349 
	C165.021942,585.819580 165.023529,590.806702 165.025116,595.793884 
z"/>
<path fill="#3A8F30" opacity="1.000000" stroke="none" 
	d="
M165.379089,595.931458 
	C165.023529,590.806702 165.021942,585.819580 165.026398,580.357544 
	C174.784515,582.142334 184.536575,584.402039 194.644531,587.274414 
	C194.673157,592.537537 194.345886,597.187927 194.018616,601.838379 
	C184.590103,599.915283 175.161591,597.992126 165.379089,595.931458 
z"/>
<path fill="#47982E" opacity="1.000000" stroke="none" 
	d="
M220.039917,50.402519 
	C210.325150,50.969498 200.610382,51.536480 190.445084,51.630547 
	C190.003922,46.479008 190.013290,41.800373 190.022644,37.121742 
	C199.718979,36.486588 209.415298,35.851429 219.571960,35.743019 
	C220.034836,40.980686 220.037369,45.691601 220.039917,50.402519 
z"/>
<path fill="#2E8632" opacity="1.000000" stroke="none" 
	d="
M136.406799,72.105301 
	C135.722580,66.995911 135.376007,61.760311 134.839050,56.126110 
	C143.796448,51.709991 152.944214,47.692482 162.498566,44.100311 
	C163.709488,49.114578 164.513824,53.703506 165.318146,58.292435 
	C155.793579,62.854649 146.268997,67.416870 136.406799,72.105301 
z"/>
<path fill="#61AA2B" opacity="1.000000" stroke="none" 
	d="
M250.106934,355.494080 
	C250.738327,350.011139 251.577042,344.783386 252.988098,339.417908 
	C255.074615,340.503662 256.554291,341.772949 258.108978,342.942474 
	C264.369171,347.651886 270.652496,352.330505 276.671265,357.288330 
	C275.944916,359.559692 275.358917,361.544464 275.030975,363.570984 
	C274.518127,366.740265 274.179901,369.937805 273.767700,373.123352 
	C265.949890,367.331970 258.132050,361.540588 250.106934,355.494080 
z"/>
<path fill="#84C226" opacity="1.000000" stroke="none" 
	d="
M354.878448,323.509033 
	C354.782104,329.489197 354.503052,335.199829 353.831055,341.161072 
	C345.935455,335.672668 338.432739,329.933655 330.939697,323.716309 
	C331.362152,317.651520 331.774994,312.065033 332.187836,306.478546 
	C339.690491,312.065521 347.193115,317.652496 354.878448,323.509033 
z"/>
<path fill="#47982E" opacity="1.000000" stroke="none" 
	d="
M194.426514,601.923584 
	C194.345886,597.187927 194.673157,592.537537 195.003494,587.425354 
	C204.405228,587.210144 213.803909,587.456665 223.612091,588.176147 
	C224.021652,593.370667 224.021698,598.092163 224.021759,602.813721 
	C214.292648,602.545410 204.563522,602.277100 194.426514,601.923584 
z"/>
<path fill="#227E33" opacity="1.000000" stroke="none" 
	d="
M136.845520,566.677612 
	C136.479782,572.023682 135.875381,577.135803 135.124573,582.633179 
	C126.831322,577.500854 118.684509,571.983215 110.574707,565.948669 
	C111.076485,562.544800 111.414108,559.629639 112.045776,556.779724 
	C112.561920,554.450989 113.429024,552.200012 114.140533,549.914551 
	C121.629311,555.424255 129.118088,560.934021 136.845520,566.677612 
z"/>
<path fill="#6BB02A" opacity="1.000000" stroke="none" 
	d="
M302.743042,559.370239 
	C303.376801,562.687439 303.577942,566.148987 304.081329,569.565857 
	C304.334778,571.286133 305.136932,572.925476 305.975372,574.869080 
	C297.415314,580.067505 288.570801,584.998291 279.365356,589.525269 
	C278.948547,583.939453 278.892731,578.757324 278.836853,573.575256 
	C286.703003,568.882202 294.569153,564.189087 302.743042,559.370239 
z"/>
<path fill="#55A12D" opacity="1.000000" stroke="none" 
	d="
M224.463989,602.836670 
	C224.021698,598.092163 224.021652,593.370667 224.028778,588.240173 
	C233.108765,586.332642 242.181595,584.834106 251.636536,583.740234 
	C252.382355,588.928528 252.746048,593.712219 253.109726,598.495850 
	C243.708557,599.950439 234.307388,601.405090 224.463989,602.836670 
z"/>
<path fill="#61AA2B" opacity="1.000000" stroke="none" 
	d="
M253.520538,598.418640 
	C252.746048,593.712219 252.382355,588.928528 252.021576,583.700989 
	C260.718384,580.090088 269.412323,576.923035 278.471558,573.665649 
	C278.892731,578.757324 278.948547,583.939453 279.007812,589.593811 
	C270.651245,592.824524 262.291290,595.583008 253.520538,598.418640 
z"/>
<path fill="#55A12D" opacity="1.000000" stroke="none" 
	d="
M220.483093,50.509041 
	C220.037369,45.691601 220.034836,40.980686 220.036072,35.830498 
	C229.166534,36.345604 238.293213,37.299984 247.748566,38.909817 
	C248.050430,44.391819 248.023621,49.218365 247.996811,54.044914 
	C238.973297,52.901794 229.949768,51.758675 220.483093,50.509041 
z"/>
<path fill="#2E8632" opacity="1.000000" stroke="none" 
	d="
M163.075821,271.558380 
	C162.692703,277.130798 162.309601,282.703217 161.910248,288.760803 
	C154.405823,283.670502 146.917618,278.095093 139.213379,271.801208 
	C139.633484,265.729980 140.269638,260.377228 141.215149,255.170547 
	C148.708282,260.730530 155.892044,266.144470 163.075821,271.558380 
z"/>
<path fill="#197835" opacity="1.000000" stroke="none" 
	d="
M113.938873,549.648499 
	C113.429024,552.200012 112.561920,554.450989 112.045776,556.779724 
	C111.414108,559.629639 111.076485,562.544800 110.361588,565.699829 
	C103.756645,559.914673 97.401840,553.861450 90.872986,547.524414 
	C91.132935,543.520447 91.494125,539.789795 92.026108,536.083679 
	C92.390366,533.546021 92.992455,531.042480 93.753387,528.256958 
	C100.591446,535.120972 107.164330,542.251709 113.938873,549.648499 
z"/>
<path fill="#197835" opacity="1.000000" stroke="none" 
	d="
M95.785172,239.606384 
	C96.298256,234.120682 97.032921,228.880844 98.184914,223.415909 
	C105.771118,228.585785 112.939995,233.980759 120.093292,239.881195 
	C119.559319,245.758560 119.040924,251.130463 118.522530,256.502380 
	C111.017273,250.952332 103.512009,245.402298 95.785172,239.606384 
z"/>
<path fill="#61AA2B" opacity="1.000000" stroke="none" 
	d="
M248.312988,54.223839 
	C248.023621,49.218365 248.050430,44.391819 248.091797,39.069080 
	C256.587128,41.110981 265.067902,43.649075 273.816193,46.867153 
	C274.003937,52.562370 273.924133,57.577610 273.844330,62.592850 
	C265.439270,59.862823 257.034210,57.132793 248.312988,54.223839 
z"/>
<path fill="#3A8F30" opacity="1.000000" stroke="none" 
	d="
M165.694946,58.225670 
	C164.513824,53.703506 163.709488,49.114578 162.886566,44.022442 
	C171.639130,41.372166 180.410278,39.225101 189.602036,37.099892 
	C190.013290,41.800373 190.003922,46.479008 189.993378,51.631107 
	C182.018707,54.122684 174.045242,56.140797 165.694946,58.225670 
z"/>
<path fill="#6BB02A" opacity="1.000000" stroke="none" 
	d="
M265.923859,275.222321 
	C266.293579,271.666077 266.565308,268.095734 267.075287,264.559723 
	C267.322235,262.847290 268.016113,261.199310 268.771790,259.256409 
	C275.921478,264.095612 282.806976,269.200592 289.756409,274.977020 
	C288.975647,280.878510 288.130951,286.108521 286.988586,291.221405 
	C279.768555,285.810303 272.846222,280.516296 265.923859,275.222321 
z"/>
<path fill="#74B629" opacity="1.000000" stroke="none" 
	d="
M317.022888,71.096802 
	C316.871460,77.288239 316.529022,83.236504 316.093567,89.591797 
	C308.797058,84.509232 301.593597,79.019638 294.308655,72.904205 
	C294.482574,70.342728 294.594757,68.374451 295.026550,66.478996 
	C295.692780,63.554630 296.577850,60.680122 297.370087,57.784462 
	C303.857361,62.140854 310.344635,66.497246 317.022888,71.096802 
z"/>
<path fill="#7DBD27" opacity="1.000000" stroke="none" 
	d="
M331.988342,306.234100 
	C331.774994,312.065033 331.362152,317.651520 330.614441,323.598450 
	C323.000702,318.386932 315.721863,312.814911 308.654114,306.863403 
	C309.623260,301.207062 310.381348,295.930237 311.139435,290.653412 
	C318.022552,295.765503 324.905701,300.877594 331.988342,306.234100 
z"/>
<path fill="#74B629" opacity="1.000000" stroke="none" 
	d="
M310.947937,290.391724 
	C310.381348,295.930237 309.623260,301.207062 308.353394,306.740967 
	C300.989777,301.778229 294.138000,296.558380 287.286224,291.338531 
	C288.130951,286.108521 288.975647,280.878510 289.950867,275.243530 
	C296.973114,279.935730 303.864777,285.032867 310.947937,290.391724 
z"/>
<path fill="#84C226" opacity="1.000000" stroke="none" 
	d="
M356.040588,416.875275 
	C355.692474,422.278870 355.344360,427.682465 354.994843,433.553253 
	C348.092346,428.935944 341.191223,423.851440 334.195557,418.083466 
	C334.390167,415.259277 334.587982,413.101196 334.990509,410.982056 
	C335.561005,407.978577 336.282410,405.003784 337.264130,402.128265 
	C340.605957,404.463623 343.690247,406.602875 346.621979,408.934021 
	C349.834900,411.488800 352.907074,414.220612 356.040588,416.875275 
z"/>
<path fill="#74B629" opacity="1.000000" stroke="none" 
	d="
M314.992340,404.023926 
	C308.056702,398.904877 301.121063,393.785828 294.151672,388.013184 
	C294.411102,384.899750 294.579681,382.416718 295.030884,379.986145 
	C295.528503,377.305573 296.285553,374.673096 297.251373,372.137451 
	C303.798187,376.964142 310.023254,381.673096 316.105469,386.814880 
	C315.639221,392.839783 315.315765,398.431854 314.992340,404.023926 
z"/>
<path fill="#7DBD27" opacity="1.000000" stroke="none" 
	d="
M315.188416,404.290955 
	C315.315765,398.431854 315.639221,392.839783 316.416443,386.990173 
	C323.559937,391.827362 330.249634,396.922028 336.939331,402.016724 
	C336.282410,405.003784 335.561005,407.978577 334.990509,410.982056 
	C334.587982,413.101196 334.390167,415.259277 333.999695,417.820801 
	C327.727081,413.680450 321.555786,409.119202 315.188416,404.290955 
z"/>
<path fill="#6BB02A" opacity="1.000000" stroke="none" 
	d="
M296.929596,372.019684 
	C296.285553,374.673096 295.528503,377.305573 295.030884,379.986145 
	C294.579681,382.416718 294.411102,384.899750 293.946777,387.745941 
	C287.246948,383.306427 280.718231,378.480652 273.978638,373.389099 
	C274.179901,369.937805 274.518127,366.740265 275.030975,363.570984 
	C275.358917,361.544464 275.944916,359.559692 276.991180,357.410889 
	C284.021301,362.183624 290.475433,367.101654 296.929596,372.019684 
z"/>
<path fill="#6BB02A" opacity="1.000000" stroke="none" 
	d="
M297.140808,57.524910 
	C296.577850,60.680122 295.692780,63.554630 295.026550,66.478996 
	C294.594757,68.374451 294.482574,70.342728 294.074036,72.661850 
	C287.406647,69.682785 280.892395,66.320259 274.111206,62.775284 
	C273.924133,57.577610 274.003937,52.562370 274.100098,47.048000 
	C281.714874,50.121033 289.313202,53.693195 297.140808,57.524910 
z"/>
<path fill="#268133" opacity="1.000000" stroke="none" 
	d="
M118.728561,256.743042 
	C119.040924,251.130463 119.559319,245.758560 120.402191,240.077393 
	C127.453041,244.853592 134.179413,249.939056 140.905777,255.024506 
	C140.269638,260.377228 139.633484,265.729980 138.996368,271.550354 
	C132.308487,267.006561 125.621536,261.995117 118.728561,256.743042 
z"/>
<path fill="#222931" opacity="1.000000" stroke="none" 
	d="
M141.215149,255.170547 
	C134.179413,249.939056 127.453041,244.853592 120.417770,239.571930 
	C112.939995,233.980759 105.771118,228.585785 98.309082,223.010101 
	C89.242920,216.216171 80.469925,209.602936 71.389702,202.814453 
	C60.631577,197.165359 64.914459,187.899368 65.603859,179.876221 
	C66.151817,173.499161 68.005089,167.234238 69.340698,160.505981 
	C72.419716,152.086060 75.436867,144.079681 78.775131,135.221176 
	C82.247902,137.521805 84.792053,139.207245 87.637123,141.059174 
	C97.051010,148.138107 106.163979,155.050537 115.585419,162.122101 
	C126.079071,170.015488 136.264282,177.749756 146.743271,185.627136 
	C156.858521,193.223984 166.679977,200.677719 176.768768,208.274704 
	C187.800674,216.560898 198.565231,224.703827 209.648254,232.972107 
	C219.790878,240.566910 229.615036,248.036377 239.742264,255.632889 
	C248.457703,262.159698 256.870056,268.559479 265.603149,275.090759 
	C272.846222,280.516296 279.768555,285.810303 286.988586,291.221405 
	C294.138000,296.558380 300.989777,301.778229 308.142273,307.120483 
	C315.721863,312.814911 323.000702,318.386932 330.604797,324.076782 
	C338.432739,329.933655 345.935455,335.672668 353.732941,341.546204 
	C363.742584,346.614563 365.632904,354.622833 365.078064,364.998688 
	C364.175964,381.868134 364.834686,398.821045 364.834625,415.738708 
	C364.834625,417.513611 364.834625,419.288483 364.834625,421.950470 
	C361.639709,420.012146 359.184052,418.522339 356.384460,416.953888 
	C352.907074,414.220612 349.834900,411.488800 346.621979,408.934021 
	C343.690247,406.602875 340.605957,404.463623 337.264130,402.128265 
	C330.249634,396.922028 323.559937,391.827362 316.559265,386.557373 
	C310.023254,381.673096 303.798187,376.964142 297.251373,372.137451 
	C290.475433,367.101654 284.021301,362.183624 277.247192,357.143036 
	C270.652496,352.330505 264.369171,347.651886 258.108978,342.942474 
	C256.554291,341.772949 255.074615,340.503662 253.244049,339.151215 
	C242.840424,331.383545 232.753204,323.744873 222.351379,315.962250 
	C212.538605,308.646210 203.040421,301.474121 193.228973,294.164001 
	C183.153397,286.689209 173.391083,279.352417 163.352295,271.787018 
	C155.892044,266.144470 148.708282,260.730530 141.215149,255.170547 
z"/>
</svg>